<svg xmlns="http://www.w3.org/2000/svg" version="1.1" xmlns:xlink="http://www.w3.org/1999/xlink" width="2000" height="409" viewBox="0 0 2000 409"><g transform="matrix(1,0,0,1,-1.2119435434067327,-0.3821473476975257)"><svg viewBox="0 0 396 81" data-background-color="#ffffff" preserveAspectRatio="xMidYMid meet" height="409" width="2000" xmlns="http://www.w3.org/2000/svg" xmlns:xlink="http://www.w3.org/1999/xlink"><g id="tight-bounds" transform="matrix(1,0,0,1,0.23996482159452626,0.07568199306479073)"><svg viewBox="0 0 395.52 80.84845660020733" height="80.84845660020733" width="395.52"><g><svg viewBox="0 0 449.73044724487244 91.92964337042096" height="80.84845660020733" width="395.52"><g transform="matrix(1,0,0,1,54.210447244872455,0)"><svg viewBox="0 0 395.52 91.92964337042096" height="91.92964337042096" width="395.52"><g id="textblocktransform"><svg viewBox="0 0 395.52 91.92964337042096" height="91.92964337042096" width="395.52" id="textblock"><g><svg viewBox="0 0 395.52 91.92964337042096" height="91.92964337042096" width="395.52"><path d="M394.594 19.717C392.735 10.175 387.435 7.522 387.435 7.522 371.165-2.306 350.86-0.188 332.619 1.224 300.414 1.281 268.339 3.381 236.208 4.507 168.767 4.679 100.749 1.854 33.643 8.82 27.339 10.957-6.54 9.24 1.121 20.939 3.129 25.805 10.456 31.206 10.232 35.672 11.236 36.454 12.631 34.66 13.226 35.786 15.309 38.821 18.711 37.389 21.501 39.183 17.614 43.974 20.403 47.962 23.062 52.142 18.377 53.23 12.371 52.714 9.675 56.321 9.396 58.936 7.89 58.44 6.235 58.325 5.026 58.249 2.59 58.535 2.999 59.356 4.394 62.161-1.594 63.783 2.162 66.531-0.422 69.509 3.948 72.085 3.353 75.31 3.278 75.959 3.687 76.513 4.338 76.665 7.22 77.486 3.018 79.089 3.464 80.826 33.029 92.696 65.104 84.49 95.394 89.948 103.259 86.131 97.346 91.303 100.489 90.502 102.943 89.567 104.728 93.441 107.499 91.246 107.927 90.616 107.276 89.128 108.8 89.414 109.6 89.567 110.307 89.528 110.418 88.65 110.586 87.334 109.117 88.154 108.726 87.467 112.947 83.994 111.906 92.257 115.866 91.914 115.68 90.902 114.528 89.452 116.889 89.643 119.232 88.192 119.306 86.99 121.389 90.254 121.463 90.96 121.835 91.456 122.43 91.799 128.938 88.25 135.409 93.059 142.233 91.456 146.417 89.7 150.433 92.41 154.672 91.742 156.16 91.208 157.666 90.254 159.098 91.857 176.632 92.2 195.319 90.769 211.943 91.914 256.364 89.776 303.836 92.792 350.674 89.967 361.719 88.879 373.192 87.334 383.958 86.093 383.958 86.093 392.679 82.696 392.679 67.428S394.538 54.069 394.817 41.912C395.096 29.756 396.398 29.259 394.538 19.717Z" opacity="1" fill="#f98866" data-fill-palette-color="tertiary"></path><g transform="matrix(1,0,0,1,55.76832,26.230666666666664)"><svg width="283.98335999999995" viewBox="2.8 -34.8 256.13 35.599999999999994" height="39.46831003708763" data-palette-color="#ffffff"><path d="M4.65 0.6L4.65 0.6Q3.75 0.6 3.28-0.5 2.8-1.6 2.8-2.95L2.8-2.95Q2.8-4.9 3.25-9.3L3.25-9.3 5.75-34 13.45-34Q17-34 19.07-34.13 21.15-34.25 22.23-34.38 23.3-34.5 23.8-34.5L23.8-34.5Q24.35-34.5 24.58-34.33 24.8-34.15 24.8-33.4L24.8-33.4Q24.8-32.5 24.45-31.45 24.1-30.4 23.53-29.65 22.95-28.9 22.2-28.9L22.2-28.9Q21.7-28.9 20.55-29.05 19.4-29.2 17.95-29.4L17.95-29.4 11.45-30.25 9.2-7.95Q9.1-6.9 9.1-5.85 9.1-4.8 9.25-3.75L9.25-3.75 19.95-5.85Q20.85-6.05 21.48-6.18 22.1-6.3 22.3-6.3L22.3-6.3Q22.9-6.3 22.9-5.6L22.9-5.6Q22.9-4.35 22.48-3.05 22.05-1.75 21.3-0.88 20.55 0 19.45 0L19.45 0 17.95 0Q12.35 0 9.15 0.3 5.95 0.6 4.65 0.6ZM13.6-15.85L7.2-15.75 7.85-19.6 10.25-19.6Q12.4-19.6 14.3-19.75 16.2-19.9 17.5-20.05 18.8-20.2 19.15-20.2L19.15-20.2Q19.55-20.2 19.75-19.98 19.95-19.75 19.95-19.35L19.95-19.35Q19.95-18.6 18.95-17.8 17.95-17 16.48-16.45 15-15.9 13.6-15.85L13.6-15.85ZM28.45-13.95L35.05-14.25Q37-14.35 37.35-14.35 37.7-14.35 37.75-14.35L37.75-14.35Q38.35-14.35 38.5-14.13 38.65-13.9 38.65-13.5L38.65-13.5Q38.65-12.85 38.32-12.23 38-11.6 37.22-11.18 36.45-10.75 35.05-10.7L35.05-10.7 26.1-10.35Q26.05-10.35 26.02-10.35 26-10.35 25.95-10.35L25.95-10.35Q25.35-10.35 25.2-10.65 25.05-10.95 25.05-11.45L25.05-11.45Q25.05-12.2 25.82-13.05 26.6-13.9 28.45-13.95L28.45-13.95ZM57.1 0.8L57.1 0.8Q52.9 0.8 49.77-0.88 46.65-2.55 44.9-5.9 43.15-9.25 43.15-14.15L43.15-14.15Q43.15-18.65 44.57-22.43 46-26.2 48.6-28.98 51.2-31.75 54.8-33.27 58.4-34.8 62.8-34.8L62.8-34.8Q66.9-34.8 68.95-33.93 71-33.05 71-30.8L71-30.8Q71-29.6 70.57-28.75 70.15-27.9 69.65-27.9L69.65-27.9Q69.2-27.9 68.62-28.2 68.05-28.5 67.34-28.85L67.34-28.85Q66.15-29.45 64.72-30.13 63.3-30.8 60.95-30.8L60.95-30.8Q57.9-30.8 55.37-28.8 52.85-26.8 51.32-23.28 49.8-19.75 49.8-15.05L49.8-15.05Q49.8-11.1 50.97-8.45 52.15-5.8 54.1-4.5 56.05-3.2 58.35-3.2L58.35-3.2Q60.25-3.2 61.75-3.93 63.25-4.65 64.37-5.6 65.5-6.55 66.4-7.28 67.3-8 68-8L68-8Q68.55-8 68.92-7.75 69.3-7.5 69.3-6.7L69.3-6.7Q69.3-4.75 67.65-3.05 66-1.35 63.25-0.28 60.5 0.8 57.1 0.8ZM80.44 0.75L80.44 0.75Q76.14 0.75 73.77-1.78 71.39-4.3 71.39-9.2L71.39-9.2Q71.39-12.45 72.47-15.23 73.54-18 75.39-20.1 77.24-22.2 79.67-23.38 82.09-24.55 84.79-24.55L84.79-24.55Q89.09-24.55 91.37-22 93.64-19.45 93.64-14.3L93.64-14.3Q93.64-11.2 92.62-8.47 91.59-5.75 89.79-3.68 87.99-1.6 85.59-0.43 83.19 0.75 80.44 0.75ZM81.64-3L81.64-3Q83.54-3 84.92-4.4 86.29-5.8 87.02-8.25 87.74-10.7 87.74-13.75L87.74-13.75Q87.74-17 86.77-18.9 85.79-20.8 83.54-20.8L83.54-20.8Q81.69-20.8 80.27-19.4 78.84-18 78.07-15.58 77.29-13.15 77.29-10.05L77.29-10.05Q77.29-6.6 78.39-4.8 79.49-3 81.64-3ZM131.24 0.5L127.59 0.5Q127.04 0.5 126.79-0.03 126.54-0.55 126.49-1.2 126.44-1.85 126.44-2.25L126.44-2.25Q126.44-2.95 126.54-4.05 126.64-5.15 126.79-6.38 126.94-7.6 127.09-8.5L127.09-8.5 127.94-13.7Q128.09-14.7 128.24-15.58 128.39-16.45 128.39-17.45L128.39-17.45Q128.39-18.2 128.09-18.6 127.79-19 127.29-19L127.29-19Q126.64-19 125.14-17.75 123.64-16.5 121.94-14.2 120.24-11.9 118.84-8.65 117.44-5.4 117.04-1.4L117.04-1.4 115.94-8.75Q117.99-14.55 120.52-18 123.04-21.45 125.54-22.98 128.04-24.5 129.89-24.5L129.89-24.5Q131.44-24.5 132.37-23.95 133.29-23.4 133.74-22.35 134.19-21.3 134.19-19.85L134.19-19.85Q134.19-18.8 134.02-17.63 133.84-16.45 133.64-15.15L133.64-15.15 131.24 0.5ZM97.89 0.7L97.89 0.7Q97.24 0.7 96.92 0.48 96.59 0.25 96.57-0.7 96.54-1.65 96.79-3.75L96.79-3.75 99.14-24.55 102.64-24.55Q103.64-24.55 104.12-23.45 104.59-22.35 104.59-20.95L104.59-20.95Q104.59-20.3 104.22-18.93 103.84-17.55 103.34-16.03 102.84-14.5 102.44-13.35L102.44-13.35 101.14-9.25 102.99-9.55 102.14-1.4Q102.09-0.9 101.57-0.5 101.04-0.1 100.34 0.18 99.64 0.45 98.97 0.58 98.29 0.7 97.89 0.7ZM112.64 0.7L112.64 0.7Q111.74 0.7 111.54 0.35 111.34 0 111.34-0.85L111.34-0.85Q111.34-1.6 111.52-3.3 111.69-5 112.29-8.5L112.29-8.5 113.19-13.65Q113.39-14.65 113.52-15.63 113.64-16.6 113.64-17.6L113.64-17.6Q113.64-18.3 113.39-18.65 113.14-19 112.59-19L112.59-19Q111.89-19 110.34-17.75 108.79-16.5 107.07-14.2 105.34-11.9 103.94-8.65 102.54-5.4 102.14-1.4L102.14-1.4 100.94-8.75Q102.44-13.1 104.34-16.1 106.24-19.1 108.19-20.95 110.14-22.8 111.92-23.65 113.69-24.5 114.99-24.5L114.99-24.5Q116.64-24.5 117.57-23.9 118.49-23.3 118.87-22.33 119.24-21.35 119.24-20.3L119.24-20.3Q119.24-19.05 118.84-17.7 118.44-16.35 117.77-14.43 117.09-12.5 116.29-9.5L116.29-9.5 117.94-10.1 117.04-1.4Q116.99-0.9 116.49-0.5 115.99-0.1 115.27 0.15 114.54 0.4 113.82 0.55 113.09 0.7 112.64 0.7ZM172.74 0.5L169.09 0.5Q168.54 0.5 168.29-0.03 168.04-0.55 167.99-1.2 167.94-1.85 167.94-2.25L167.94-2.25Q167.94-2.95 168.04-4.05 168.14-5.15 168.29-6.38 168.44-7.6 168.59-8.5L168.59-8.5 169.44-13.7Q169.59-14.7 169.74-15.58 169.89-16.45 169.89-17.45L169.89-17.45Q169.89-18.2 169.59-18.6 169.29-19 168.79-19L168.79-19Q168.14-19 166.64-17.75 165.14-16.5 163.44-14.2 161.74-11.9 160.34-8.65 158.94-5.4 158.54-1.4L158.54-1.4 157.44-8.75Q159.49-14.55 162.01-18 164.54-21.45 167.04-22.98 169.54-24.5 171.39-24.5L171.39-24.5Q172.94-24.5 173.86-23.95 174.79-23.4 175.24-22.35 175.69-21.3 175.69-19.85L175.69-19.85Q175.69-18.8 175.51-17.63 175.34-16.45 175.14-15.15L175.14-15.15 172.74 0.5ZM139.39 0.7L139.39 0.7Q138.74 0.7 138.41 0.48 138.09 0.25 138.06-0.7 138.04-1.65 138.29-3.75L138.29-3.75 140.64-24.55 144.14-24.55Q145.14-24.55 145.61-23.45 146.09-22.35 146.09-20.95L146.09-20.95Q146.09-20.3 145.71-18.93 145.34-17.55 144.84-16.03 144.34-14.5 143.94-13.35L143.94-13.35 142.64-9.25 144.49-9.55 143.64-1.4Q143.59-0.9 143.06-0.5 142.54-0.1 141.84 0.18 141.14 0.45 140.46 0.58 139.79 0.7 139.39 0.7ZM154.14 0.7L154.14 0.7Q153.24 0.7 153.04 0.35 152.84 0 152.84-0.85L152.84-0.85Q152.84-1.6 153.01-3.3 153.19-5 153.79-8.5L153.79-8.5 154.69-13.65Q154.89-14.65 155.01-15.63 155.14-16.6 155.14-17.6L155.14-17.6Q155.14-18.3 154.89-18.65 154.64-19 154.09-19L154.09-19Q153.39-19 151.84-17.75 150.29-16.5 148.56-14.2 146.84-11.9 145.44-8.65 144.04-5.4 143.64-1.4L143.64-1.4 142.44-8.75Q143.94-13.1 145.84-16.1 147.74-19.1 149.69-20.95 151.64-22.8 153.41-23.65 155.19-24.5 156.49-24.5L156.49-24.5Q158.14-24.5 159.06-23.9 159.99-23.3 160.36-22.33 160.74-21.35 160.74-20.3L160.74-20.3Q160.74-19.05 160.34-17.7 159.94-16.35 159.26-14.43 158.59-12.5 157.79-9.5L157.79-9.5 159.44-10.1 158.54-1.4Q158.49-0.9 157.99-0.5 157.49-0.1 156.76 0.15 156.04 0.4 155.31 0.55 154.59 0.7 154.14 0.7ZM186.79 0.8L186.79 0.8Q182.94 0.8 180.84-1.63 178.74-4.05 178.74-8.3L178.74-8.3Q178.74-11.85 179.74-14.8 180.74-17.75 182.54-19.95 184.34-22.15 186.76-23.35 189.19-24.55 192.04-24.55L192.04-24.55Q195.44-24.55 197.24-23.1 199.04-21.65 199.04-18.95L199.04-18.95Q199.04-16.2 197.21-14.15 195.39-12.1 191.96-10.65 188.54-9.2 183.79-8.2L183.79-8.2 183.14-11.2Q185.89-11.55 188.19-12.4 190.49-13.25 191.89-14.68 193.29-16.1 193.29-18.05L193.29-18.05Q193.29-19.4 192.76-20.1 192.24-20.8 190.89-20.8L190.89-20.8Q188.84-20.8 187.41-19.3 185.99-17.8 185.26-15.4 184.54-13 184.54-10.3L184.54-10.3Q184.54-6.65 185.66-5.43 186.79-4.2 188.99-4.2L188.99-4.2Q191.29-4.2 193.01-4.93 194.74-5.65 195.99-6.45L195.99-6.45Q196.39-6.7 196.69-6.85 196.99-7 197.19-7L197.19-7Q197.44-7 197.59-6.8 197.74-6.6 197.74-6.35L197.74-6.35Q197.74-5.45 196.94-4.25 196.14-3.05 194.66-1.9 193.19-0.75 191.19 0.03 189.19 0.8 186.79 0.8ZM207.18-1.2L207.18-1.2 205.98-8.75Q207.83-13.55 209.76-17.07 211.68-20.6 213.68-22.55 215.68-24.5 217.73-24.5L217.73-24.5Q218.88-24.5 219.38-23.78 219.88-23.05 219.88-21.95L219.88-21.95Q219.88-20.95 219.66-20.03 219.43-19.1 219.01-18.5 218.58-17.9 217.98-17.9L217.98-17.9Q217.43-17.9 216.76-18.25 216.08-18.6 214.93-18.6L214.93-18.6Q214.18-18.6 213.03-17.05 211.88-15.5 210.66-12.93 209.43-10.35 208.48-7.28 207.53-4.2 207.18-1.2ZM202.98 0.7L202.98 0.7Q202.33 0.7 202.01 0.48 201.68 0.25 201.66-0.7 201.63-1.65 201.88-3.75L201.88-3.75 204.23-24.55 207.73-24.55Q208.48-24.55 209.08-23.45 209.68-22.35 209.68-20.95L209.68-20.95Q209.68-20.3 209.31-18.93 208.93-17.55 208.43-16.03 207.93-14.5 207.53-13.35L207.53-13.35 206.23-9.25 208.08-9.55 207.18-1.2Q207.13-0.7 206.58-0.33 206.03 0.05 205.31 0.28 204.58 0.5 203.93 0.6 203.28 0.7 202.98 0.7ZM227.08 0.8L227.08 0.8Q223.13 0.8 221.03-1.65 218.93-4.1 218.93-8.7L218.93-8.7Q218.93-13.2 220.71-16.8 222.48-20.4 225.56-22.48 228.63-24.55 232.58-24.55L232.58-24.55Q234.68-24.55 236.28-24 237.88-23.45 237.88-21.7L237.88-21.7Q237.88-20.95 237.63-20.2 237.38-19.45 236.98-18.95 236.58-18.45 236.18-18.45L236.18-18.45Q235.98-18.45 235.63-18.57 235.28-18.7 235.03-18.85L235.03-18.85Q234.48-19.2 233.71-19.65 232.93-20.1 232.01-20.45 231.08-20.8 230.08-20.8L230.08-20.8Q228.53-20.8 227.31-19.35 226.08-17.9 225.38-15.5 224.68-13.1 224.68-10.3L224.68-10.3Q224.68-6.6 225.81-5.38 226.93-4.15 229.08-4.15L229.08-4.15Q230.88-4.15 232.13-4.78 233.38-5.4 234.53-6.2L234.53-6.2Q234.98-6.5 235.23-6.58 235.48-6.65 235.68-6.65L235.68-6.65Q235.93-6.65 236.08-6.45 236.23-6.25 236.23-6L236.23-6Q236.23-5.1 235.48-3.93 234.73-2.75 233.43-1.68 232.13-0.6 230.51 0.1 228.88 0.8 227.08 0.8ZM246.68 0.8L246.68 0.8Q242.83 0.8 240.73-1.63 238.63-4.05 238.63-8.3L238.63-8.3Q238.63-11.85 239.63-14.8 240.63-17.75 242.43-19.95 244.23-22.15 246.65-23.35 249.08-24.55 251.93-24.55L251.93-24.55Q255.33-24.55 257.13-23.1 258.93-21.65 258.93-18.95L258.93-18.95Q258.93-16.2 257.1-14.15 255.28-12.1 251.85-10.65 248.43-9.2 243.68-8.2L243.68-8.2 243.03-11.2Q245.78-11.55 248.08-12.4 250.38-13.25 251.78-14.68 253.18-16.1 253.18-18.05L253.18-18.05Q253.18-19.4 252.65-20.1 252.13-20.8 250.78-20.8L250.78-20.8Q248.73-20.8 247.3-19.3 245.88-17.8 245.15-15.4 244.43-13 244.43-10.3L244.43-10.3Q244.43-6.65 245.55-5.43 246.68-4.2 248.88-4.2L248.88-4.2Q251.18-4.2 252.9-4.93 254.63-5.65 255.88-6.45L255.88-6.45Q256.28-6.7 256.58-6.85 256.88-7 257.08-7L257.08-7Q257.33-7 257.48-6.8 257.63-6.6 257.63-6.35L257.63-6.35Q257.63-5.45 256.83-4.25 256.03-3.05 254.55-1.9 253.08-0.75 251.08 0.03 249.08 0.8 246.68 0.8Z" opacity="1" transform="matrix(1,0,0,1,0,0)" fill="#ffffff" class="wordmark-text-0" data-fill-palette-color="quaternary" id="text-0"></path></svg></g></svg></g></svg></g></svg></g><g transform="matrix(1,0,0,1,0,19.285000586246905)"><svg viewBox="0 0 44.89292648455695 53.35964219792715" height="53.35964219792715" width="44.89292648455695"><g><svg xmlns="http://www.w3.org/2000/svg" xmlns:xlink="http://www.w3.org/1999/xlink" xmlns:a="http://ns.adobe.com/AdobeSVGViewerExtensions/3.0/" version="1.1" x="0" y="0" viewBox="0 0 29.258 34.776" enable-background="new -5 -4.224 40 40" xml:space="preserve" height="53.35964219792715" width="44.89292648455695" class="icon-icon-0" data-fill-palette-color="accent" id="icon-0"><path d="M10.678 33.496C11.518 32.658 11.916 31.686 11.916 30.494S11.518 28.333 10.678 27.494C9.84 26.656 8.869 26.214 7.678 26.214S5.472 26.656 4.634 27.494 3.398 29.303 3.398 30.494 3.796 32.658 4.634 33.496C5.472 34.335 6.486 34.776 7.678 34.776S9.839 34.335 10.678 33.496" fill="#000000" data-fill-palette-color="accent"></path><path d="M24.58 33.496C25.419 32.658 25.816 31.686 25.816 30.494S25.419 28.333 24.58 27.494C23.742 26.656 22.771 26.214 21.579 26.214S19.373 26.656 18.535 27.494 17.299 29.303 17.299 30.494 17.696 32.658 18.535 33.496C19.373 34.335 20.387 34.776 21.579 34.776S23.742 34.335 24.58 33.496" fill="#000000" data-fill-palette-color="accent"></path><path d="M0 3.972V6.133H9.001V0H4.015C1.323 0 0 1.324 0 3.972" fill="#000000" data-fill-palette-color="accent"></path><path d="M0 15.181V21.095C0 23.742 1.323 25.068 4.015 25.068H25.287C27.934 25.068 29.258 23.743 29.258 21.095V15.181z" fill="#000000" data-fill-palette-color="accent"></path><polygon points="0,8.341 0,12.975 9.001,12.975 9.001,8.341 0,8.341 " fill="#000000" data-fill-palette-color="accent"></polygon><polygon points="11.208,6.133 18.535,6.133 18.535,0 11.208,0 11.208,6.133 " fill="#000000" data-fill-palette-color="accent"></polygon><polygon points="18.535,8.341 11.208,8.341 11.208,12.975 18.535,12.975 18.535,8.341 " fill="#000000" data-fill-palette-color="accent"></polygon><path d="M25.287 0H20.741V6.133H29.258V3.972C29.258 1.324 27.935 0 25.287 0" fill="#000000" data-fill-palette-color="accent"></path><polygon points="29.258,8.341 20.741,8.341 20.741,12.975 29.258,12.975 29.258,8.341 " fill="#000000" data-fill-palette-color="accent"></polygon></svg></g></svg></g></svg></g><defs></defs></svg><rect width="395.52" height="80.84845660020733" fill="none" stroke="none" visibility="hidden"></rect></g></svg></g></svg>